<svg viewBox="0 0 1024 1024" enable-background="new 0 0 1024 1024" focusable="false">
  <path fill-rule="evenodd" clip-rule="evenodd" d="M898,264H336.7L113.6,512l223.2,248H898V264z M336.7,202.1c-17.6,0-34.3,7.5-46.1,20.5l-223.2,248c-21.2,23.6-21.2,59.4,0,82.9l223.2,248c11.8,13.1,28.5,20.5,46.1,20.5H898c34.2,0,62-27.8,62-62V264c0-34.2-27.8-62-62-62H336.7z"/>
  <path d="M743.7,376.7c0-3.7-3-6.7-6.7-6.7l-55.1,0.3l-83,99l-82.9-98.9l-55.2-0.3c-3.7,0-6.7,2.9-6.7,6.7c0,1.6,0.6,3.1,1.6,4.3l108.7,129.5L455.6,640c-1,1.3-1.6,2.8-1.6,4.3c0,3.7,3,6.7,6.7,6.7l55.2-0.3l82.9-99l82.9,98.9l55.1,0.3c3.7,0,6.7-2.9,6.7-6.7c0-1.6-0.6-3.1-1.6-4.3L633.5,510.5L742.2,381C743.2,379.9,743.7,378.3,743.7,376.7z"/>
</svg>
