<svg viewBox="0 0 1024 1024" focusable="false">
  <path d="M304,280c-48.6,0-88,39.4-88,88c0,48.6,39.4,88,88,88s88-39.4,88-88C392,319.4,352.6,280,304,280z M928,160H525.3l-58,72H888v430.2L664.2,396.8c-3.2-3.8-9-3.8-12.2,0l-62.7,74.3l174.9,214.4L624.6,864H928c17.7,0,32-14.3,32-32V192C960,174.3,945.7,160,928,160z M536.8,533.3L424.6,666.4l-144-170.7c-3.2-3.8-9-3.8-12.2,0L136,652.7V232h245.3l58-72H96c-17.7,0-32,14.3-32,32v640c0,17.7,14.3,32,32,32h427l138.8-177.5L536.8,533.3z M304,280c-48.6,0-88,39.4-88,88c0,48.6,39.4,88,88,88s88-39.4,88-88C392,319.4,352.6,280,304,280z M304,280c-48.6,0-88,39.4-88,88c0,48.6,39.4,88,88,88s88-39.4,88-88C392,319.4,352.6,280,304,280z" />
</svg>
